<?xml version="1.0" encoding="utf-8"?>
<!-- Generator: Adobe Illustrator 24.1.3, SVG Export Plug-In . SVG Version: 6.00 Build 0)  -->
<svg version="1.1" id="NumS" xmlns="http://www.w3.org/2000/svg" xmlns:xlink="http://www.w3.org/1999/xlink" x="0px" y="0px"
	 viewBox="0 0 1024 1024" style="enable-background:new 0 0 1024 1024;" xml:space="preserve">
<style type="text/css">
	.st0{fill:#182549;}
	.st1{fill:#0078BA;}
	.st2{fill:#0CD3F4;}
</style>
<g>
	<g>
		<polygon class="st0" points="512,238.6 539,253.3 539.5,223.3 567.9,207.9 568,177.6 512,208.1 		"/>
		<polygon class="st1" points="483.6,253.8 512,238.6 512,208.1 456,177.6 456,208.1 483.5,223.1 		"/>
		<polygon class="st2" points="512,147.1 456,177.6 512,208.1 568,177.6 		"/>
		<polygon class="st0" points="624,420.1 624,269.1 651.4,254.1 651.4,223.4 595,253.5 595,389.4 		"/>
		<polygon class="st2" points="595.5,192.9 539.5,223.4 595,253.5 651.4,223.4 		"/>
		<polygon class="st0" points="456,387.4 455.5,268.8 483.6,253.8 483.5,223.1 427.5,253.5 427.5,324.3 		"/>
		<polygon class="st1" points="403.4,271 427.5,324.3 427.5,253.5 371.5,223 371.5,253.7 		"/>
		<polygon class="st2" points="428,192.9 371.5,223 427.5,253.5 483.5,223.1 		"/>
		<polygon class="st1" points="539.5,223.3 539,253.3 568,269.1 568,360.7 568,360.7 595,389.4 595,253.5 		"/>
		<g>
			<polygon class="st0" points="512,330.2 568,360.7 568,269.1 512,299.6 			"/>
		</g>
		<polygon class="st1" points="456,360.7 512,330.2 512,299.6 455.5,268.8 		"/>
		<polygon class="st2" points="512,238.6 455.5,268.8 512,299.6 568,269.1 		"/>
		<polygon class="st1" points="679.9,479.3 679.9,299.6 624,269.1 624,420.1 		"/>
		<polygon class="st2" points="679.9,238.6 624,269.1 679.9,299.6 735.9,269.1 		"/>
		<polygon class="st0" points="456,387.4 403.4,271 347.4,301.5 456,542.2 		"/>
		<polygon class="st0" points="346,414.6 344,574.2 398,544.8 		"/>
		<polygon class="st2" points="512,330.2 456,360.7 512,391.2 568,360.7 		"/>
		<polygon class="st0" points="736,542.9 735.9,269.1 679.9,299.6 679.9,479.3 568,360.7 512,391.2 512,665.6 569,634.6 
			568.3,453.4 679.4,574.2 		"/>
		<polygon class="st1" points="456,360.7 456,542.2 347.4,301.5 288,269.2 288,543.7 344,574.2 346,414.5 428,619.9 512,665.6 
			512,391.2 		"/>
		<polygon class="st2" points="344,238.8 288,269.2 347.4,301.5 403.4,271 		"/>
		<g>
			<polygon class="st1" points="568.3,453.4 568.5,513.6 679.4,574.2 			"/>
		</g>
	</g>
	<g>
		<path class="st0" d="M366,846.1h-28.9L281,753.9v92.2h-28.9V705.9H281l56.3,92.4v-92.4H366V846.1z"/>
		<path class="st0" d="M449.2,835.5c-6.9,8.3-16.4,12.5-28.5,12.5c-11.2,0-19.7-3.2-25.6-9.6c-5.9-6.4-8.9-15.8-9-28.2v-68.2h27.8
			v67.4c0,10.9,4.9,16.3,14.8,16.3c9.4,0,15.9-3.3,19.4-9.8v-73.8h27.9v104.1h-26.2L449.2,835.5z"/>
		<path class="st0" d="M523.9,741.9l0.9,11.6c7.4-9,17.4-13.6,29.9-13.6c13.4,0,22.6,5.3,27.6,15.9c7.3-10.6,17.7-15.9,31.3-15.9
			c11.3,0,19.7,3.3,25.2,9.9c5.5,6.6,8.3,16.5,8.3,29.7v66.5h-27.9v-66.4c0-5.9-1.2-10.2-3.5-12.9c-2.3-2.7-6.4-4.1-12.2-4.1
			c-8.3,0-14.1,4-17.3,11.9l0.1,71.5h-27.8v-66.3c0-6-1.2-10.4-3.6-13.1c-2.4-2.7-6.4-4-12.1-4c-7.9,0-13.6,3.3-17.1,9.8v73.6h-27.8
			V741.9H523.9z"/>
		<path class="st1" d="M742.9,809.3c0-5.5-1.9-9.6-5.8-12.6c-3.9-2.9-10.8-6-20.8-9.2c-10-3.2-17.9-6.4-23.8-9.6
			c-15.9-8.6-23.9-20.2-23.9-34.7c0-7.6,2.1-14.3,6.4-20.3c4.3-5.9,10.4-10.6,18.4-13.9c8-3.3,17-5,26.9-5c10,0,18.9,1.8,26.8,5.4
			c7.8,3.6,13.9,8.7,18.2,15.4c4.3,6.6,6.5,14.1,6.5,22.5H743c0-6.4-2-11.4-6.1-15c-4-3.6-9.7-5.3-17-5.3c-7.1,0-12.5,1.5-16.5,4.5
			c-3.9,3-5.9,6.9-5.9,11.8c0,4.6,2.3,8.4,6.9,11.5c4.6,3.1,11.3,6,20.3,8.7c16.4,4.9,28.4,11.1,35.9,18.4s11.3,16.4,11.3,27.3
			c0,12.1-4.6,21.6-13.8,28.5c-9.2,6.9-21.5,10.3-37.1,10.3c-10.8,0-20.6-2-29.5-5.9c-8.9-3.9-15.6-9.4-20.3-16.2
			c-4.7-6.9-7-14.8-7-23.9h29c0,15.5,9.2,23.2,27.7,23.2c6.9,0,12.2-1.4,16.1-4.2C741,818.2,742.9,814.3,742.9,809.3z"/>
	</g>
</g>
</svg>
